<?xml version="1.0" encoding="iso-8859-1"?>
<!-- Generator: Adobe Illustrator 19.0.0, SVG Export Plug-In . SVG Version: 6.00 Build 0)  -->
<svg version="1.1" id="Capa_1" xmlns="http://www.w3.org/2000/svg" xmlns:xlink="http://www.w3.org/1999/xlink" x="0px" y="0px"
	 viewBox="0 0 512 512" style="enable-background:new 0 0 512 512;" xml:space="preserve" fill="#e24d0b">
<g>
	<g>
		<path d="M395.636,488.727h-23.273v-11.636c0-19.247-15.663-34.909-34.909-34.909h-20.526c-11.613,0-22.063-6.458-27.252-16.838
			c-2.874-5.748-9.868-8.052-15.616-5.201c-5.748,2.874-8.076,9.868-5.201,15.616c9.181,18.304,27.601,29.696,48.07,29.696h20.526
			c6.423,0,11.636,5.213,11.636,11.636v11.636H162.909v-11.636c0-6.423,5.225-11.636,11.636-11.636h20.527
			c20.48,0,38.9-11.392,48.058-29.708c0.815-1.606,1.233-3.398,1.233-5.201V197.818c0-6.435-5.213-11.636-11.636-11.636
			s-11.636,5.201-11.636,11.636v229.748c-5.504,9.076-15.255,14.615-26.019,14.615h-20.527c-19.247,0-34.909,15.663-34.909,34.909
			v11.636h-23.273c-6.423,0-11.636,5.201-11.636,11.636S109.94,512,116.364,512h34.909h209.455h34.909
			c6.435,0,11.636-5.201,11.636-11.636S402.071,488.727,395.636,488.727z"/>
	</g>
</g>
<g>
	<g>
		<path d="M488.727,290.909h-69.818c-6.435,0-11.636,5.201-11.636,11.636c0,6.435,5.201,11.636,11.636,11.636h57.798
			c-0.698,10.577-2.339,21.097-4.922,31.395l-1.571,6.33c-1.303,5.19-5.946,8.82-11.299,8.82h-56.751
			c-5.353,0-9.984-3.631-11.287-8.809l-1.594-6.342c-3.305-13.277-5.097-26.903-5.271-40.553l46.534-102.365l31.732,69.818
			c2.653,5.83,9.495,8.483,15.407,5.772c5.853-2.665,8.436-9.553,5.772-15.406l-42.321-93.114c-1.443-3.165-4.224-5.527-7.587-6.423
			l-131.037-34.944c0-0.116,0.035-0.233,0.035-0.361c0-21.632-14.883-39.692-34.909-44.893V11.636C267.636,5.201,262.423,0,256,0
			c-6.423,0-11.636,5.201-11.636,11.636v71.471c-12.311,3.2-22.551,11.276-28.695,22.097L84.457,70.214
			c-5.516-1.501-11.241,1.257-13.591,6.423l-58.182,128c-0.687,1.513-1.047,3.153-1.047,4.817c0,16.372,2.013,32.745,5.993,48.675
			l1.583,6.353c3.898,15.546,17.827,26.426,33.873,26.426h56.751c16.047,0,29.975-10.88,33.873-26.438l1.583-6.342
			c3.968-15.93,5.981-32.303,5.981-48.675c0-6.435-5.213-11.636-11.636-11.636H69.818c-6.423,0-11.636,5.201-11.636,11.636
			c0,6.435,5.213,11.636,11.636,11.636h57.798c-0.698,10.577-2.339,21.085-4.911,31.395l-1.583,6.33
			c-1.303,5.19-5.946,8.82-11.299,8.82H53.085c-5.341,0-9.996-3.631-11.287-8.809l-1.583-6.342
			c-3.316-13.277-5.085-26.903-5.283-40.553L81.455,109.58l31.732,69.807c1.943,4.282,6.179,6.819,10.601,6.819
			c1.617,0,3.247-0.326,4.806-1.047c5.853-2.665,8.436-9.553,5.783-15.407l-32.151-70.714l107.264,28.602
			c0,0.128-0.035,0.244-0.035,0.361c0,25.67,20.876,46.545,46.545,46.545c4.038,0,7.889-0.675,11.636-1.652v222.743
			c0,6.435,5.201,11.636,11.636,11.636c6.435,0,11.636-5.201,11.636-11.636V158.464c2.06-2.362,3.863-4.922,5.423-7.657
			l117.923,31.441l-52.48,115.479c-0.698,1.513-1.047,3.154-1.047,4.818c0,16.384,2.025,32.756,5.993,48.675l1.594,6.353
			C372.189,373.12,386.129,384,402.176,384h56.751c16.047,0,29.975-10.88,33.873-26.438l1.571-6.342
			c3.968-15.919,5.993-32.291,5.993-48.675C500.364,296.111,495.162,290.909,488.727,290.909z M256,151.273
			c-12.835,0-23.273-10.438-23.273-23.273s10.438-23.273,23.273-23.273c12.835,0,23.273,10.438,23.273,23.273
			S268.835,151.273,256,151.273z"/>
	</g>
</g>
<g>
</g>
<g>
</g>
<g>
</g>
<g>
</g>
<g>
</g>
<g>
</g>
<g>
</g>
<g>
</g>
<g>
</g>
<g>
</g>
<g>
</g>
<g>
</g>
<g>
</g>
<g>
</g>
<g>
</g>
</svg>
